<svg xmlns="http://www.w3.org/2000/svg" width="1200" height="630" viewBox="0 0 1200 630" role="img" aria-labelledby="title desc">
  <title id="title">SignalConso · L’observatoire de la consommation</title>
  <desc id="desc">Identité du tableau de bord : signalements, tendances et territoires. Projet indépendant.</desc>
  <rect width="1200" height="630" fill="#f2f7f5"/>
  <path d="M890 0h310v630H890Z" fill="#e1efea"/>
  <circle cx="1080" cy="110" r="180" fill="#d4e8e1"/>
  <circle cx="1080" cy="530" r="260" fill="#d4e8e1"/>
  <g transform="translate(858 197) scale(.95)">
    <rect width="256" height="256" rx="62" fill="#087f73"/>
    <path d="M77 48h102c17 0 31 14 31 31v80c0 17-14 31-31 31H98l-38 27v-44c-9-6-14-16-14-28V79c0-17 14-31 31-31Z" fill="#fff"/>
    <rect x="77" y="122" width="20" height="38" rx="5" fill="#087f73"/>
    <rect x="112" y="99" width="20" height="61" rx="5" fill="#087f73"/>
    <rect x="147" y="76" width="20" height="84" rx="5" fill="#087f73"/>
  </g>
  <g font-family="Arial, Helvetica, sans-serif">
    <text x="76" y="114" fill="#087f73" font-size="16" font-weight="700" letter-spacing="3">DONNÉES OUVERTES · REGARD INDÉPENDANT</text>
    <text x="72" y="236" fill="#192c36" font-size="76" font-weight="700" letter-spacing="-3">SignalConso</text>
    <text x="76" y="302" fill="#087f73" font-size="35" font-weight="700">L’observatoire de la consommation</text>
    <text x="76" y="380" fill="#526b64" font-size="26">Les signalements, en perspective.</text>
    <path d="M76 444h666" stroke="#cadfd6" stroke-width="2"/>
    <text x="76" y="493" fill="#526b64" font-size="19">Tendances</text>
    <circle cx="202" cy="486" r="3" fill="#087f73"/>
    <text x="230" y="493" fill="#526b64" font-size="19">Territoires</text>
    <circle cx="352" cy="486" r="3" fill="#087f73"/>
    <text x="380" y="493" fill="#526b64" font-size="19">Comparaisons</text>
    <text x="76" y="568" fill="#6a8179" font-size="16">Un projet de Philippe Fontaine</text>
  </g>
</svg>
